<?xml version="1.0" encoding="UTF-8" standalone="no"?>
<svg
   xmlns:dc="http://purl.org/dc/elements/1.1/"
   xmlns:cc="http://creativecommons.org/ns#"
   xmlns:rdf="http://www.w3.org/1999/02/22-rdf-syntax-ns#"
   xmlns:svg="http://www.w3.org/2000/svg"
   xmlns="http://www.w3.org/2000/svg"
   version="1.1"
   width="100%"
   height="100%"
   viewBox="0 0 272.96 114.01"
   id="svg2">
  <defs
     id="defs16" />
  <path
     d="m 127.55317,52.778283 c -1.62019,-0.07933 -3.01437,-0.14762 -3.99898,-0.194771 -2.86834,-0.137452 -4.68193,-0.279836 -5.73336,-1.453839 l 0,0 c -1.01473,-1.133031 -0.99665,-2.785632 -0.96673,-5.784537 0.007,-0.549874 0.026,-1.230093 0.0537,-2.002607 -0.56372,0.488753 -1.10482,1.029741 -1.6042,1.623307 -4.29456,5.544317 -0.44899,16.058714 -3.66399,21.63629 -2.29731,4.049593 -7.76519,8.42169 -15.819969,4.666587 -6.240548,-4.087165 -7.069337,-10.383199 -4.592057,-15.47594 3.080316,-5.883846 12.836446,-19.671511 9.082356,-22.139502 -2.912513,-1.894044 -5.138844,2.615525 -6.347143,3.801032 -3.648966,3.582103 -4.346132,3.472177 -8.330928,7.30135 -12.607636,11.198652 -11.01668,27.878973 -1.365198,37.437025 8.060842,8.852199 23.177879,11.946066 35.076749,2.983686 12.39572,-8.85428 12.50006,-23.245803 8.2098,-32.398081 z"
     id="path7" />
  <path
     d="M 111.78,51.977 62.035,2.2381 c -2.8622,-2.8648 -7.5082,-2.8648 -10.374,0 l -10.329,10.33 13.102,13.102 c 3.0459,-1.0284 6.5371,-0.33888 8.9639,2.0884 2.4394,2.4424 3.124,5.9634 2.0698,9.0195 l 12.628,12.628 c 3.0551,-1.0528 6.58,-0.37262 9.0195,2.0712 3.4106,3.4096 3.4106,8.9345 0,12.345 -3.4111,3.4116 -8.936,3.4116 -12.349,0 -2.5645,-2.5665 -3.1988,-6.3345 -1.8999,-9.4942 l -11.777,-11.777 -0.001,30.991 c 0.8315,0.41162 1.6162,0.961 2.3091,1.6509 3.4096,3.4092 3.4096,8.9331 0,12.348 -3.4106,3.4091 -8.938,3.4091 -12.345,0 -3.4101,-3.4146 -3.4101,-8.9385 0,-12.348 0.84275,-0.84125 1.8179,-1.478 2.8584,-1.9048 v -31.279 c -1.041,-0.425 -2.015,-1.057 -2.859,-1.905 -2.583,-2.581 -3.2051,-6.372 -1.8804,-9.5439 l -12.916,-12.918 -34.106,34.105 c -2.8657,2.867 -2.8657,7.513 0,10.378 l 49.742,49.739 c 2.8638,2.8648 7.5082,2.8648 10.376,0 l 49.512,-49.504 c 2.8648,-2.8662 2.8648,-7.5136 0,-10.379"
     id="path10"
     style="fill:#f03c2e" />
  <path
     d="m 91.435633,55.168625 c 3.080316,-5.883846 12.836447,-19.671511 9.082357,-22.139502 -2.912514,-1.894044 -5.138845,2.615525 -6.347144,3.801032 -3.648966,3.582103 -4.346132,3.472177 -8.330928,7.30135 -11.567392,11.198652 -1.446436,9.362631 -2.405442,14.967756 -0.651626,-4.753375 -1.7179,13.350581 8.001157,-3.930636 z"
     id="path9" />
  <path
     d="m 119.32082,41.717034 c -0.0712,1.473337 -0.11771,2.728503 -0.12717,3.620287 -0.0229,2.203297 -0.04,3.773097 0.36897,4.229737 0.41831,0.467068 2.03447,0.580873 4.10335,0.67854 0.68301,0.03266 1.56653,0.07637 2.5822,0.125232 6.59166,0.322705 18.95029,0.936146 21.53434,1.066437 L 164.40999,36.545861 C 164.40899,34.21659 163.99261,23.796194 156.98756,15.974478 149.96249,8.1304134 139.70658,6.7560653 137.42451,6.5432621 L 120.63314,21.581441 c -0.17869,2.408587 -0.99411,13.496949 -1.31232,20.135593 z m 6.09804,2.90728 c -0.76522,-0.85443 -0.89452,-2.055541 -0.42587,-3.029676 0.15188,-0.314564 0.36406,-0.605269 0.63968,-0.852114 1.1308,-1.01273 2.8698,-0.917653 3.88254,0.213144 1.01339,1.131541 0.91557,2.868981 -0.21523,3.881711 -0.33,0.295547 -0.71155,0.485568 -1.11275,0.595191 -0.97124,0.263059 -2.05052,-0.0067 -2.76837,-0.808256 z m 19.96427,-1.247265 c 0.86196,0.962444 0.78052,2.440884 -0.18267,3.303507 -0.96319,0.862622 -2.44163,0.781189 -3.30358,-0.181255 -0.86196,-0.962443 -0.78119,-2.441629 0.182,-3.304251 0.96319,-0.862622 2.4423,-0.780444 3.30425,0.181999 z m 5.00265,-21.112862 c 1.854,2.070148 1.67744,5.250059 -0.39271,7.104062 -2.0694,1.853337 -5.24798,1.67826 -7.10198,-0.391888 -1.85334,-2.069402 -1.67893,-5.248724 0.39047,-7.102061 2.06948,-1.854748 5.25022,-1.68026 7.10422,0.389887 z m -25.11148,5.673141 c -0.86195,-0.962443 -0.78052,-2.440884 0.18267,-3.303506 0.96319,-0.862622 2.44163,-0.781189 3.30358,0.181254 0.86196,0.962444 0.78119,2.441629 -0.182,3.304252 -0.96319,0.862622 -2.44229,0.780444 -3.30425,-0.182 z"
     id="path11" />
</svg>
